<?xml version="1.0" encoding="utf-8"?>
<!-- Generator: Adobe Illustrator 18.0.0, SVG Export Plug-In . SVG Version: 6.00 Build 0)  -->
<!DOCTYPE svg PUBLIC "-//W3C//DTD SVG 1.1//EN" "http://www.w3.org/Graphics/SVG/1.1/DTD/svg11.dtd">
<svg version="1.1" id="Layer_1" xmlns="http://www.w3.org/2000/svg" xmlns:xlink="http://www.w3.org/1999/xlink" x="0px" y="0px"
	 viewBox="0 0 480 480" style="enable-background:new 0 0 480 480;" xml:space="preserve">
<style type="text/css">
	.st0{fill:#185F85;}
	.st1{fill:#0D84BE;}
	.st2{fill:#2A2D31;}
	.st3{fill:#1A9BD7;}
</style>
<g>
	<polygon class="st0" points="165.8,329.8 165.8,342.1 165.8,358.7 209.4,383.6 220,389.9 234.3,398.2 244.4,380.1 248.7,360.7 
		234.3,348.1 165.8,308.4 	"/>
	<path class="st1" d="M371.6,319.2v-79.3c0-26.2,0-52.6,0-79.1l-28.7-1l-6,9.3L328,186v108l-93.7,54.1v21.2v29
		C280.2,371.8,325.7,345.4,371.6,319.2z"/>
	<polygon class="st2" points="140.7,214.9 140.7,135.6 97.4,160.8 97.4,319.2 140.7,344.1 140.7,265.1 234.3,319.2 234.3,319.2 
		234.3,268.8 184.2,239.9 234.3,210.9 234.3,160.8 	"/>
	<path class="st3" d="M234.3,81.7c45.8,26.4,91.4,52.6,137.2,79.1l-25.2,14.6L328,186l-93.7-54.1l-68.5,39.5c0-16.6,0-33.5,0-50.1
		L234.3,81.7z"/>
</g>
</svg>
